<svg width="45" height="35" viewBox="0 0 45 35" fill="none" xmlns="http://www.w3.org/2000/svg">
<circle cx="19.8153" cy="31.1662" r="2.73178" transform="rotate(-33.6628 19.8153 31.1662)" fill="white" fill-opacity="0.6"/>
<path d="M7.32346 7.49772L7.32347 8.59265C7.32347 8.98717 7.44016 9.37288 7.65884 9.70124L18.8325 26.479C19.4447 27.3983 20.6863 27.6472 21.6057 27.035L26.4706 23.7951" stroke="white" stroke-opacity="0.6" stroke-width="2" stroke-linecap="round"/>
<path d="M28.6095 25.847L16.9508 8.34081C16.6776 7.93069 16.2627 7.63584 15.7856 7.51278L4.84009 4.68994" stroke="white" stroke-opacity="0.6" stroke-width="2" stroke-linecap="round"/>
<path d="M11.0554 14.0256L17.5517 9.69925" stroke="white" stroke-opacity="0.6" stroke-linecap="round"/>
<path d="M14.0839 18.5728L20.5801 14.2464" stroke="white" stroke-opacity="0.6" stroke-linecap="round"/>
<path d="M17.1123 23.1199L23.6086 18.7935" stroke="white" stroke-opacity="0.6" stroke-linecap="round"/>
<rect x="21.9999" y="6.99976" width="23" height="18" rx="5" fill="white"/>
<path d="M34.6718 11.4451V19.9998H33.119V13.2556L31.0624 13.9353V12.6814L34.496 11.4451H34.6718Z" fill="#191919"/>
</svg>
