<svg width="123" height="123" viewBox="0 0 123 123" fill="none" xmlns="http://www.w3.org/2000/svg">
<g filter="url(#filter0_b_1518_2808)">
<g filter="url(#filter1_b_1518_2808)">
<path d="M61.5 0C64.7393 0 67.7908 1.47882 70.7719 2.88721C72.6733 3.80267 74.6216 4.7416 76.5698 5.25802C78.612 5.7979 80.842 5.98569 83.0015 6.15C86.2408 6.40821 89.574 6.68989 92.25 8.21565C94.9729 9.78836 96.8742 12.5582 98.7286 15.2576C99.9492 17.0181 101.193 18.849 102.672 20.3279C104.151 21.8067 105.982 23.0508 107.742 24.2714C110.442 26.1258 113.212 28.0271 114.784 30.75C116.334 33.426 116.592 36.7592 116.85 39.9985C117.014 42.158 117.202 44.388 117.742 46.4302C118.258 48.3784 119.197 50.3502 120.113 52.2281C121.545 55.1857 123 58.2607 123 61.5C123 64.7393 121.521 67.7908 120.113 70.7719C119.197 72.6733 118.258 74.6216 117.742 76.5698C117.202 78.612 117.014 80.842 116.85 83.0015C116.592 86.2408 116.31 89.574 114.784 92.25C113.212 94.9729 110.442 96.8742 107.742 98.7286C105.982 99.9492 104.151 101.193 102.672 102.672C101.193 104.151 99.9492 105.982 98.7286 107.742C96.8742 110.442 94.9729 113.212 92.25 114.784C89.574 116.334 86.2408 116.592 83.0015 116.85C80.842 117.014 78.612 117.202 76.5698 117.742C74.6216 118.258 72.6498 119.197 70.7719 120.113C67.8143 121.545 64.7393 123 61.5 123C58.2607 123 55.2092 121.521 52.2281 120.113C50.3267 119.197 48.3784 118.258 46.4302 117.742C44.388 117.202 42.158 117.014 39.9985 116.85C36.7592 116.592 33.426 116.31 30.75 114.784C28.0271 113.212 26.1258 110.442 24.2714 107.742C23.0508 105.982 21.8067 104.151 20.3279 102.672C18.849 101.193 17.0181 99.9492 15.2576 98.7286C12.5582 96.8742 9.78836 94.9729 8.21565 92.25C6.66641 89.574 6.40821 86.2408 6.15 83.0015C5.98569 80.842 5.7979 78.612 5.25802 76.5698C4.7416 74.6216 3.80267 72.6498 2.88721 70.7719C1.45534 67.8143 0 64.7393 0 61.5C0 58.2607 1.47882 55.2092 2.88721 52.2281C3.80267 50.3267 4.7416 48.3784 5.25802 46.4302C5.7979 44.388 5.98569 42.158 6.15 39.9985C6.40821 36.7592 6.68989 33.426 8.21565 30.75C9.78836 28.0271 12.5582 26.1258 15.2576 24.2714C17.0181 23.0508 18.849 21.8067 20.3279 20.3279C21.8067 18.849 23.0508 17.0181 24.2714 15.2576C26.1258 12.5582 28.0271 9.78836 30.75 8.21565C33.426 6.66641 36.7592 6.40821 39.9985 6.15C42.158 5.98569 44.388 5.7979 46.4302 5.25802C48.3784 4.7416 50.3502 3.80267 52.2281 2.88721C55.2092 1.47882 58.2607 0 61.5 0Z" fill="white" fill-opacity="0.76"/>
</g>
</g>
<path d="M21.6269 56.0432L21.4184 56.9795L17.1441 56.0779L16.7618 57.9157L17.6306 58.1584C18.3256 58.3665 18.9164 58.5745 19.3681 58.7826C19.8199 58.9906 20.1326 59.2334 20.3411 59.4761C20.5496 59.7188 20.6539 59.9616 20.6886 60.1696C20.7234 60.4123 20.7234 60.6551 20.6539 60.9672L19.7504 60.8631C19.7851 60.7938 19.7851 60.6897 19.7504 60.5857C19.7504 60.4817 19.6809 60.3777 19.5766 60.239C19.4724 60.1003 19.3334 59.9616 19.1596 59.8575C18.9859 59.7188 18.7426 59.5801 18.3951 59.4414C18.0476 59.3027 17.6654 59.164 17.2136 59.06L15.6846 58.6092L16.4491 54.9683L21.6269 56.0432Z" fill="#191919"/>
<path d="M22.0439 50.1485L22.8432 50.0791C23.1212 50.7033 23.1559 51.3968 22.9127 52.1943C22.6347 53.0266 22.2177 53.5814 21.5574 53.9281C20.9319 54.2749 20.2021 54.3096 19.4029 54.0668C18.6384 53.8241 18.0824 53.408 17.7349 52.7838C17.3874 52.1597 17.3179 51.4662 17.5959 50.6339C17.8044 49.9751 18.2214 49.455 18.7774 49.1776C19.3334 48.8655 19.9589 48.8308 20.6539 49.0389C20.8624 49.1082 21.0709 49.1776 21.2447 49.2816L20.0284 53.1653C20.5149 53.2693 20.9319 53.1999 21.3142 52.9919C21.6964 52.7838 21.9397 52.4024 22.1134 51.8823C22.2872 51.2234 22.2872 50.6339 22.0439 50.1485ZM18.4299 50.946C18.2909 51.3968 18.2909 51.7782 18.4646 52.1597C18.6384 52.5411 18.8816 52.7838 19.2986 52.9919L20.2716 49.9404C19.8546 49.8364 19.4724 49.8711 19.1596 50.0444C18.8469 50.2178 18.5689 50.5299 18.4299 50.946Z" fill="#191919"/>
<path d="M20.3758 46.0566L19.6113 47.8597L18.7426 47.513L20.6191 43.0398L21.4878 43.3866L20.7233 45.1897L24.7544 46.8541L24.4069 47.721L20.3758 46.0566Z" fill="#191919"/>
<path d="M29.6195 37.8038L29.133 38.6014L27.2218 37.4224L25.6927 39.9537L27.604 41.1327L27.1175 41.9303L22.5652 39.1562L23.0517 38.3587L24.9282 39.503L26.4572 36.9716L24.5807 35.8273L25.0672 35.0298L29.6195 37.8038Z" fill="#191919"/>
<path d="M27.4303 33.747L26.6658 33.4696C26.7353 32.8455 26.9785 32.2907 27.3955 31.7705C27.8473 31.2157 28.299 30.9036 28.7856 30.8689C29.2721 30.8343 29.7933 31.0423 30.3841 31.4931L32.9556 33.5043L32.3996 34.1978L31.8436 33.8164C31.9826 34.4752 31.8436 35.0647 31.3918 35.6195C31.0791 36.0009 30.7316 36.209 30.3146 36.2784C29.8976 36.3477 29.4806 36.209 29.0983 35.8969C28.6813 35.5848 28.4728 35.1687 28.4728 34.6833C28.4728 34.1978 28.6466 33.747 29.0288 33.2616C29.3763 32.8108 29.7238 32.5334 30.1061 32.4294C29.6196 32.0479 29.2373 31.8745 28.9246 31.8399C28.6118 31.8052 28.3338 31.9786 28.021 32.36C27.7083 32.7414 27.5345 33.1922 27.4303 33.747ZM30.9053 34.8567C31.2181 34.4405 31.3223 33.9551 31.2181 33.3656L30.6968 32.9495C30.3146 33.0535 29.9671 33.2962 29.6891 33.6777C29.4806 33.9204 29.3763 34.1978 29.3763 34.4405C29.3763 34.7179 29.4806 34.926 29.6891 35.0994C29.8976 35.2728 30.1061 35.3074 30.3146 35.2728C30.5231 35.2381 30.7316 35.0994 30.9053 34.8567Z" fill="#191919"/>
<path d="M37.8901 31.8047L37.1951 32.4289L32.191 26.6034L32.9208 25.9792L33.3378 26.4647C33.3378 26.1873 33.4073 25.8752 33.5811 25.5631C33.7548 25.251 33.9633 24.9736 34.2413 24.7309C34.8321 24.2454 35.4228 24.0374 36.0831 24.1414C36.7434 24.2108 37.3341 24.5575 37.8554 25.1817C38.3766 25.8058 38.6199 26.4647 38.5851 27.2275C38.5504 27.9557 38.2376 28.6146 37.6121 29.1347C37.1256 29.5508 36.6739 29.7935 36.2221 29.8282L37.8901 31.8047ZM34.5888 25.5631C34.1023 25.9792 33.8938 26.4993 33.8938 27.1235L35.5966 29.1347C36.0831 29.0653 36.5349 28.8573 36.9519 28.5452C37.3689 28.1985 37.6121 27.7477 37.6121 27.2622C37.6469 26.7768 37.4731 26.326 37.0909 25.8752C36.7434 25.4591 36.3264 25.2163 35.8746 25.147C35.4228 25.0776 34.9711 25.2163 34.5888 25.5631Z" fill="#191919"/>
<path d="M41.956 25.7366L40.4964 26.6035L37.7859 22.0263L38.5852 21.5408L39.3844 22.8932L40.1489 22.4424C40.7744 22.061 41.2957 21.957 41.7822 22.061C42.2687 22.165 42.6162 22.4771 42.8942 22.9625C43.1722 23.4133 43.2417 23.8988 43.1375 24.3843C43.0332 24.9044 42.6162 25.3205 41.956 25.7366ZM40.4617 23.344L39.8709 23.6907L40.8787 25.3552L41.4694 25.0084C41.8517 24.7657 42.095 24.5576 42.1992 24.3149C42.3035 24.0722 42.2687 23.8294 42.095 23.5174C41.7127 22.9625 41.1914 22.8932 40.4617 23.344ZM45.5353 23.5867L44.736 24.0722L42.0255 19.495L42.8247 19.0095L45.5353 23.5867Z" fill="#191919"/>
<path d="M51.3733 21.2985L50.5046 21.6452L49.7053 19.5647L46.96 20.6049L47.7593 22.6855L46.8905 23.0322L44.9792 18.0736L45.848 17.7269L46.6473 19.7727L49.3926 18.7325L48.5933 16.6866L49.4621 16.3398L51.3733 21.2985Z" fill="#191919"/>
<path d="M53.7711 20.6739L52.8329 20.882L51.6514 15.7153L52.5896 15.5073L53.7711 20.6739ZM54.9874 14.9525L56.2037 14.675L54.5009 17.6572L57.6285 19.7724L56.3427 20.0498L53.3889 17.9346L54.9874 14.9525Z" fill="#191919"/>
<path d="M62.1807 17.9346L62.563 18.6282C62.1112 19.1483 61.4857 19.4604 60.6517 19.5297C59.7829 19.6337 59.0879 19.4604 58.4972 19.0096C57.9412 18.5588 57.5937 17.9346 57.4894 17.1024C57.3852 16.3049 57.5589 15.646 58.0107 15.0566C58.4277 14.4671 59.0532 14.155 59.9219 14.051C60.6169 13.9816 61.2425 14.1203 61.7637 14.5364C62.285 14.9179 62.5977 15.4727 62.6672 16.2009C62.702 16.4436 62.702 16.6516 62.6672 16.825L58.6014 17.2758C58.7057 17.7613 58.9142 18.1427 59.2964 18.3854C59.6439 18.6282 60.0957 18.7322 60.6169 18.6628C61.312 18.5935 61.8332 18.3507 62.1807 17.9346ZM59.9914 14.9525C59.5397 14.9872 59.1574 15.1606 58.8794 15.4727C58.6014 15.7847 58.4624 16.1315 58.4624 16.5476L61.6595 16.2009C61.59 15.7501 61.4162 15.438 61.1035 15.2299C60.8254 14.9872 60.4432 14.9179 59.9914 14.9525Z" fill="#191919"/>
<path d="M99.7573 66.0905L99.7921 65.1542L104.171 65.397L104.275 63.5245L103.371 63.4204C102.642 63.3164 102.051 63.1777 101.564 63.039C101.078 62.9003 100.73 62.7269 100.487 62.5189C100.244 62.3108 100.105 62.1028 100.035 61.8947C99.9658 61.6867 99.9311 61.4093 99.9311 61.0972L100.869 61.0625C100.869 61.1319 100.869 61.2359 100.904 61.3399C100.939 61.4439 101.008 61.548 101.113 61.652C101.217 61.756 101.391 61.8947 101.564 61.9987C101.773 62.1028 102.016 62.2068 102.398 62.2761C102.746 62.3802 103.163 62.4495 103.615 62.4842L105.248 62.6576L105.039 66.3332L99.7573 66.0905Z" fill="#191919"/>
<path d="M100.244 71.9853L99.4793 72.1587C99.097 71.5692 98.958 70.8757 99.097 70.0781C99.236 69.2112 99.5835 68.5871 100.174 68.171C100.765 67.7202 101.46 67.5815 102.294 67.7202C103.093 67.8589 103.684 68.171 104.136 68.7605C104.588 69.3153 104.727 70.0088 104.622 70.8757C104.518 71.5692 104.205 72.124 103.684 72.5054C103.163 72.8869 102.572 73.0602 101.842 72.9215C101.599 72.8869 101.425 72.8522 101.217 72.7828L101.842 68.7605C101.356 68.7258 100.939 68.8645 100.591 69.1419C100.244 69.4193 100.07 69.8354 99.9658 70.3555C99.8615 70.9797 99.9658 71.5345 100.244 71.9853ZM103.719 70.6329C103.788 70.1822 103.719 69.7661 103.51 69.454C103.302 69.1419 102.989 68.8992 102.572 68.7605L102.086 71.9506C102.537 71.9853 102.885 71.9159 103.198 71.6732C103.476 71.4305 103.649 71.0837 103.719 70.6329Z" fill="#191919"/>
<path d="M102.537 75.7651L103.024 73.8926L103.927 74.1353L102.746 78.8165L101.842 78.5738L102.329 76.7013L98.0891 75.6264L98.3324 74.7248L102.537 75.7651Z" fill="#191919"/>
<path d="M94.5446 85.2659L94.9268 84.399L96.9771 85.3005L98.1586 82.5958L96.1083 81.6943L96.4906 80.8274L101.356 82.9426L100.973 83.8095L98.9579 82.9426L97.7764 85.6473L99.7919 86.5142L99.4096 87.3811L94.5446 85.2659Z" fill="#191919"/>
<path d="M97.2552 89.011L98.0197 89.1844C98.0197 89.8085 97.846 90.398 97.4985 90.9529C97.1162 91.577 96.6992 91.9238 96.2127 91.9931C95.7262 92.0972 95.2049 91.9238 94.5447 91.5423L91.7646 89.8432L92.2512 89.0804L92.8419 89.4271C92.6334 88.803 92.7029 88.1788 93.0852 87.5893C93.3284 87.1732 93.6759 86.9305 94.0929 86.8264C94.5099 86.7224 94.9269 86.7918 95.344 87.0692C95.7957 87.3466 96.039 87.728 96.1085 88.1788C96.178 88.6642 96.039 89.1497 95.7262 89.6352C95.4482 90.1206 95.1007 90.4327 94.7532 90.5714C95.2744 90.8835 95.6567 91.0222 95.9695 91.0222C96.2822 91.0222 96.5602 90.8141 96.8035 90.398C97.0467 90.0513 97.2205 89.5658 97.2552 89.011ZM93.6412 88.3175C93.3632 88.7683 93.3284 89.2884 93.5022 89.8432L94.0929 90.19C94.4752 90.0166 94.7879 89.7392 95.0312 89.3578C95.205 89.0804 95.2744 88.803 95.2744 88.5602C95.2744 88.2828 95.1354 88.0748 94.8922 87.9361C94.6837 87.7974 94.4404 87.7627 94.2319 87.832C93.9887 87.9014 93.8149 88.0748 93.6412 88.3175Z" fill="#191919"/>
<path d="M87.1081 91.9237L87.7683 91.2649L93.1546 96.7437L92.4944 97.4025L92.0426 96.9517C92.0774 97.2291 92.0079 97.5412 91.8689 97.8879C91.7299 98.2 91.5214 98.5121 91.2781 98.7548C90.7221 99.275 90.1313 99.5177 89.4711 99.4484C88.8108 99.4137 88.1853 99.1016 87.6293 98.5468C87.0733 97.9573 86.7605 97.2985 86.7605 96.5703C86.7258 95.8421 87.0386 95.1832 87.6293 94.5938C88.0811 94.143 88.5328 93.9002 88.9498 93.7962L87.1081 91.9237ZM90.8611 97.9226C91.3129 97.4718 91.4866 96.9517 91.4519 96.3275L89.6101 94.4551C89.1236 94.5591 88.6718 94.7671 88.3243 95.1486C87.9421 95.53 87.7336 95.9808 87.7336 96.4662C87.7336 96.9517 87.9421 97.4025 88.3591 97.8186C88.7413 98.2 89.1583 98.4428 89.6448 98.4428C90.0618 98.4774 90.4789 98.3041 90.8611 97.9226Z" fill="#191919"/>
<path d="M79.9495 100.35L80.7487 99.8646L83.5635 104.372L82.7643 104.858L79.9495 100.35ZM83.494 98.1308L84.9535 97.2292L87.7683 101.737L86.9691 102.223L86.1351 100.87L85.4053 101.321C84.7798 101.702 84.2585 101.841 83.8068 101.737C83.355 101.633 82.9728 101.356 82.66 100.87C82.382 100.419 82.2777 99.9339 82.382 99.4485C82.4515 98.9977 82.8338 98.5469 83.494 98.1308ZM85.0578 100.489L85.6485 100.107L84.606 98.4429L84.0153 98.7897C83.633 99.0324 83.3898 99.2751 83.3203 99.5178C83.2508 99.7606 83.2855 100.003 83.4593 100.315C83.8068 100.905 84.328 100.94 85.0578 100.489Z" fill="#191919"/>
<path d="M74.146 102.534L75.0495 102.222L75.814 104.337L78.5941 103.332L77.8296 101.217L78.7331 100.905L80.5401 105.898L79.6366 106.21L78.8721 104.164L76.092 105.17L76.8565 107.216L75.953 107.528L74.146 102.534Z" fill="#191919"/>
<path d="M70.3582 108.742L69.1419 108.984L70.949 106.072L67.9257 103.818L69.2114 103.575L72.061 105.794L70.3582 108.742ZM71.8177 103.055L72.756 102.881L73.729 108.083L72.7907 108.256L71.8177 103.055Z" fill="#191919"/>
<path d="M63.2691 105.378L62.9216 104.65C63.4081 104.164 64.0684 103.887 64.8677 103.817C65.7364 103.748 66.4314 103.991 66.9875 104.442C67.5435 104.927 67.8215 105.551 67.891 106.418C67.9257 107.216 67.752 107.874 67.2655 108.429C66.8137 108.984 66.1534 109.296 65.3194 109.331C64.6244 109.365 63.9989 109.192 63.5124 108.741C63.0259 108.325 62.7479 107.77 62.7131 107.042C62.7131 106.799 62.7131 106.591 62.7479 106.418L66.8137 106.21C66.7442 105.725 66.5357 105.343 66.1882 105.066C65.8407 104.788 65.3889 104.684 64.8677 104.719C64.1727 104.754 63.6514 104.996 63.2691 105.378ZM65.3194 108.464C65.7712 108.429 66.1534 108.291 66.4314 108.013C66.7094 107.736 66.8832 107.389 66.918 106.973L63.6862 107.181C63.7209 107.632 63.8947 107.944 64.2074 108.187C64.4854 108.395 64.8677 108.499 65.3194 108.464Z" fill="#191919"/>
<path d="M51.3923 43.3147V82.4968H43.6579V52.2307L34.3659 55.1848V49.0886L50.5597 43.3147H51.3923ZM86.4401 59.5085V66.2761C86.4401 69.2123 86.1268 71.7457 85.5002 73.8762C84.8735 75.9889 83.9694 77.7255 82.7878 79.0862C81.624 80.429 80.2365 81.4226 78.6252 82.0671C77.0138 82.7117 75.2235 83.0339 73.2541 83.0339C71.6786 83.0339 70.2105 82.837 68.8498 82.4431C67.4891 82.0313 66.2627 81.3958 65.1706 80.5364C64.0964 79.677 63.1654 78.5938 62.3776 77.2869C61.6078 75.962 61.0169 74.3865 60.6051 72.5603C60.1934 70.7341 59.9875 68.6394 59.9875 66.2761V59.5085C59.9875 56.5723 60.3008 54.0569 60.9274 51.9622C61.5719 49.8495 62.4761 48.1218 63.6398 46.7791C64.8215 45.4363 66.2179 44.4516 67.8293 43.825C69.4406 43.1804 71.231 42.8582 73.2004 42.8582C74.7759 42.8582 76.235 43.064 77.5778 43.4758C78.9385 43.8697 80.1649 44.4874 81.257 45.3289C82.3491 46.1703 83.2801 47.2535 84.05 48.5784C84.8198 49.8853 85.4106 51.4519 85.8224 53.2781C86.2342 55.0863 86.4401 57.1632 86.4401 59.5085ZM78.6789 67.2966V58.4612C78.6789 57.0468 78.5983 55.8114 78.4372 54.7551C78.294 53.6988 78.0702 52.8036 77.7658 52.0696C77.4614 51.3176 77.0855 50.7089 76.6379 50.2434C76.1903 49.7779 75.68 49.4377 75.1071 49.2229C74.5342 49.0081 73.8986 48.9006 73.2004 48.9006C72.3231 48.9006 71.5443 49.0707 70.8639 49.4109C70.2015 49.7511 69.6375 50.2971 69.172 51.0491C68.7065 51.7831 68.3485 52.7678 68.0978 54.0032C67.8651 55.2206 67.7487 56.7066 67.7487 58.4612V67.2966C67.7487 68.711 67.8203 69.9553 67.9635 71.0295C68.1247 72.1038 68.3574 73.0258 68.6618 73.7957C68.9841 74.5476 69.36 75.1653 69.7897 75.6487C70.2373 76.1142 70.7476 76.4543 71.3205 76.6692C71.9113 76.884 72.5558 76.9915 73.2541 76.9915C74.1134 76.9915 74.8744 76.8214 75.5368 76.4812C76.2171 76.1231 76.79 75.5681 77.2555 74.8162C77.7389 74.0463 78.097 73.0437 78.3298 71.8083C78.5625 70.573 78.6789 69.0691 78.6789 67.2966Z" fill="#163358"/>
<defs>
<filter id="filter0_b_1518_2808" x="-4" y="-4" width="131" height="131" filterUnits="userSpaceOnUse" color-interpolation-filters="sRGB">
<feFlood flood-opacity="0" result="BackgroundImageFix"/>
<feGaussianBlur in="BackgroundImage" stdDeviation="2"/>
<feComposite in2="SourceAlpha" operator="in" result="effect1_backgroundBlur_1518_2808"/>
<feBlend mode="normal" in="SourceGraphic" in2="effect1_backgroundBlur_1518_2808" result="shape"/>
</filter>
<filter id="filter1_b_1518_2808" x="-7" y="-7" width="137" height="137" filterUnits="userSpaceOnUse" color-interpolation-filters="sRGB">
<feFlood flood-opacity="0" result="BackgroundImageFix"/>
<feGaussianBlur in="BackgroundImage" stdDeviation="3.5"/>
<feComposite in2="SourceAlpha" operator="in" result="effect1_backgroundBlur_1518_2808"/>
<feBlend mode="normal" in="SourceGraphic" in2="effect1_backgroundBlur_1518_2808" result="shape"/>
</filter>
</defs>
</svg>
